<mxfile host="65bd71144e">
    <diagram id="0xoyhoB9InXKQoQoNSjv" name="Page-1">
        <mxGraphModel dx="1955" dy="1900" grid="1" gridSize="10" guides="1" tooltips="1" connect="1" arrows="1" fold="1" page="1" pageScale="1" pageWidth="850" pageHeight="1100" background="#FFFFFF" math="0" shadow="0">
            <root>
                <mxCell id="0"/>
                <mxCell id="1" parent="0"/>
                <mxCell id="104" value="" style="endArrow=none;dashed=1;html=1;strokeColor=#0A0A0A;strokeWidth=4;dashPattern=1 1;" parent="1" edge="1">
                    <mxGeometry width="50" height="50" relative="1" as="geometry">
                        <mxPoint x="259" y="-130" as="sourcePoint"/>
                        <mxPoint x="259.41" y="-720" as="targetPoint"/>
                    </mxGeometry>
                </mxCell>
                <mxCell id="102" value="" style="endArrow=none;dashed=1;html=1;strokeColor=#0A0A0A;strokeWidth=4;dashPattern=1 1;startArrow=none;" parent="1" edge="1" source="109">
                    <mxGeometry width="50" height="50" relative="1" as="geometry">
                        <mxPoint x="-160" y="-130" as="sourcePoint"/>
                        <mxPoint x="-160" y="-720" as="targetPoint"/>
                    </mxGeometry>
                </mxCell>
                <mxCell id="105" value="&lt;div style=&quot;font-family: &amp;#34;consolas&amp;#34; , &amp;#34;courier new&amp;#34; , monospace ; line-height: 1.28&quot;&gt;&lt;span style=&quot;font-size: 24px&quot;&gt;Field of Computer Graphics&lt;/span&gt;&lt;br&gt;&lt;/div&gt;&lt;div style=&quot;font-family: &amp;#34;consolas&amp;#34; , &amp;#34;courier new&amp;#34; , monospace ; line-height: 1.28&quot;&gt;&lt;span style=&quot;font-size: 24px&quot;&gt;- Rendering&lt;/span&gt;&lt;/div&gt;&lt;div style=&quot;font-family: &amp;#34;consolas&amp;#34; , &amp;#34;courier new&amp;#34; , monospace ; line-height: 1.28&quot;&gt;&lt;span style=&quot;font-size: 24px&quot;&gt;- Computational Geometry&lt;/span&gt;&lt;/div&gt;&lt;div style=&quot;font-family: &amp;#34;consolas&amp;#34; , &amp;#34;courier new&amp;#34; , monospace ; line-height: 1.28&quot;&gt;&lt;span style=&quot;font-size: 24px&quot;&gt;- Image Processing&lt;/span&gt;&lt;/div&gt;" style="whiteSpace=wrap;html=1;rounded=1;align=left;labelBorderColor=none;spacingLeft=0;spacingBottom=0;spacingRight=0;spacing=10;spacingTop=0;fontColor=#0A304D;labelBackgroundColor=none;fillColor=none;strokeWidth=4;strokeColor=none;rotation=0;fontSize=18;verticalAlign=top;" parent="1" vertex="1">
                    <mxGeometry x="-120" y="-666" width="353" height="200" as="geometry"/>
                </mxCell>
                <mxCell id="106" value="&lt;div style=&quot;font-family: &amp;#34;consolas&amp;#34; , &amp;#34;courier new&amp;#34; , monospace ; line-height: 1.28&quot;&gt;&lt;span style=&quot;font-size: 24px&quot;&gt;Field of Geo-informatics&lt;/span&gt;&lt;br&gt;&lt;/div&gt;&lt;div style=&quot;font-family: &amp;#34;consolas&amp;#34; , &amp;#34;courier new&amp;#34; , monospace ; line-height: 1.28&quot;&gt;&lt;font style=&quot;font-size: 24px&quot;&gt;- Geodesy&lt;/font&gt;&lt;/div&gt;&lt;div style=&quot;font-family: &amp;#34;consolas&amp;#34; , &amp;#34;courier new&amp;#34; , monospace ; line-height: 1.28&quot;&gt;&lt;font style=&quot;font-size: 24px&quot;&gt;- Geodata&lt;/font&gt;&lt;/div&gt;&lt;div style=&quot;font-family: &amp;#34;consolas&amp;#34; , &amp;#34;courier new&amp;#34; , monospace ; line-height: 1.28&quot;&gt;&lt;font style=&quot;font-size: 24px&quot;&gt;&lt;br&gt;&lt;/font&gt;&lt;/div&gt;" style="whiteSpace=wrap;html=1;rounded=1;align=left;labelBorderColor=none;spacingLeft=0;spacingBottom=0;spacingRight=0;spacing=10;spacingTop=0;fontColor=#0A304D;labelBackgroundColor=none;fillColor=none;strokeWidth=4;strokeColor=none;rotation=0;fontSize=18;verticalAlign=top;" parent="1" vertex="1">
                    <mxGeometry x="-480" y="-666" width="280" height="200" as="geometry"/>
                </mxCell>
                <mxCell id="131" style="edgeStyle=orthogonalEdgeStyle;shape=connector;rounded=1;html=1;exitX=0;exitY=0.5;exitDx=0;exitDy=0;labelBackgroundColor=default;fontFamily=Helvetica;fontSize=12;fontColor=#2A2A2A;startArrow=oval;startFill=1;endArrow=oval;endFill=1;strokeColor=#2A2A2A;strokeWidth=8;" parent="1" source="108" edge="1">
                    <mxGeometry relative="1" as="geometry">
                        <mxPoint x="-60" y="-440" as="targetPoint"/>
                    </mxGeometry>
                </mxCell>
                <mxCell id="108" value="&lt;div style=&quot;font-family: &amp;#34;consolas&amp;#34; , &amp;#34;courier new&amp;#34; , monospace ; line-height: 1.28&quot;&gt;Marching Squares&lt;/div&gt;" style="whiteSpace=wrap;html=1;rounded=1;align=left;labelBorderColor=none;spacingLeft=0;spacingBottom=0;spacingRight=0;spacing=10;spacingTop=0;fontColor=#0A304D;labelBackgroundColor=none;fillColor=#FFFFFF;strokeWidth=4;strokeColor=#2A2A2A;verticalAlign=top;" parent="1" vertex="1">
                    <mxGeometry x="-40" y="-430" width="200" height="40" as="geometry"/>
                </mxCell>
                <mxCell id="130" style="edgeStyle=orthogonalEdgeStyle;shape=connector;rounded=1;html=1;exitX=1;exitY=0.5;exitDx=0;exitDy=0;entryX=0;entryY=0.5;entryDx=0;entryDy=0;labelBackgroundColor=default;fontFamily=Helvetica;fontSize=12;fontColor=#2A2A2A;startArrow=oval;startFill=1;endArrow=oval;endFill=1;strokeColor=#2A2A2A;strokeWidth=8;" parent="1" source="109" target="107" edge="1">
                    <mxGeometry relative="1" as="geometry"/>
                </mxCell>
                <mxCell id="132" style="edgeStyle=orthogonalEdgeStyle;shape=connector;rounded=1;html=1;exitX=0;exitY=0.5;exitDx=0;exitDy=0;entryX=1;entryY=0.5;entryDx=0;entryDy=0;labelBackgroundColor=default;fontFamily=Helvetica;fontSize=12;fontColor=#2A2A2A;startArrow=oval;startFill=1;endArrow=oval;endFill=1;strokeColor=#2A2A2A;strokeWidth=8;" parent="1" source="109" target="112" edge="1">
                    <mxGeometry relative="1" as="geometry"/>
                </mxCell>
                <mxCell id="110" value="&lt;div style=&quot;font-family: &amp;#34;consolas&amp;#34; , &amp;#34;courier new&amp;#34; , monospace ; line-height: 1.28&quot;&gt;&lt;span style=&quot;font-size: 24px&quot;&gt;Neighboring fields&lt;/span&gt;&lt;/div&gt;" style="whiteSpace=wrap;html=1;rounded=1;align=left;labelBorderColor=none;spacingLeft=0;spacingBottom=0;spacingRight=0;spacing=10;spacingTop=0;fontColor=#0A304D;labelBackgroundColor=none;fillColor=none;strokeWidth=4;strokeColor=none;rotation=0;fontSize=18;verticalAlign=top;" parent="1" vertex="1">
                    <mxGeometry x="310" y="-666" width="330" height="200" as="geometry"/>
                </mxCell>
                <mxCell id="111" value="&lt;div style=&quot;font-family: &amp;quot;consolas&amp;quot; , &amp;quot;courier new&amp;quot; , monospace ; line-height: 1.28&quot;&gt;&lt;b&gt;CAD&lt;/b&gt;&lt;/div&gt;" style="whiteSpace=wrap;html=1;rounded=1;align=center;labelBorderColor=none;spacingLeft=0;spacingBottom=0;spacingRight=0;spacing=10;spacingTop=0;labelBackgroundColor=none;fillColor=#2A2A2A;fontColor=#F0F0F0;" parent="1" vertex="1">
                    <mxGeometry x="200" y="-506" width="120" height="40" as="geometry"/>
                </mxCell>
                <mxCell id="112" value="&lt;div style=&quot;font-family: &amp;#34;consolas&amp;#34; , &amp;#34;courier new&amp;#34; , monospace ; line-height: 1.28&quot;&gt;CRS&lt;/div&gt;" style="whiteSpace=wrap;html=1;rounded=1;align=left;labelBorderColor=none;spacingLeft=0;spacingBottom=0;spacingRight=0;spacing=10;spacingTop=0;fontColor=#0A304D;labelBackgroundColor=none;fillColor=#FFFFFF;strokeWidth=4;strokeColor=#2A2A2A;verticalAlign=top;" parent="1" vertex="1">
                    <mxGeometry x="-450" y="-480" width="170" height="40" as="geometry"/>
                </mxCell>
                <mxCell id="115" value="&lt;div style=&quot;font-family: &amp;quot;consolas&amp;quot; , &amp;quot;courier new&amp;quot; , monospace ; line-height: 1.28&quot;&gt;&lt;b&gt;BIM&lt;/b&gt;&lt;/div&gt;" style="whiteSpace=wrap;html=1;rounded=1;align=center;labelBorderColor=none;spacingLeft=0;spacingBottom=0;spacingRight=0;spacing=10;spacingTop=0;labelBackgroundColor=none;fillColor=#2A2A2A;fontColor=#F0F0F0;" parent="1" vertex="1">
                    <mxGeometry x="200" y="-456" width="120" height="40" as="geometry"/>
                </mxCell>
                <mxCell id="119" value="&lt;div style=&quot;font-family: &amp;quot;consolas&amp;quot; , &amp;quot;courier new&amp;quot; , monospace ; line-height: 1.28&quot;&gt;&lt;b&gt;Medical Imaging&lt;/b&gt;&lt;/div&gt;" style="whiteSpace=wrap;html=1;rounded=1;align=center;labelBorderColor=none;spacingLeft=0;spacingBottom=0;spacingRight=0;spacing=10;spacingTop=0;labelBackgroundColor=none;fillColor=#2A2A2A;fontColor=#F0F0F0;" parent="1" vertex="1">
                    <mxGeometry x="200" y="-406" width="120" height="40" as="geometry"/>
                </mxCell>
                <mxCell id="120" value="&lt;div style=&quot;font-family: &amp;quot;consolas&amp;quot; , &amp;quot;courier new&amp;quot; , monospace ; line-height: 1.28&quot;&gt;&lt;b&gt;Robotics&lt;/b&gt;&lt;/div&gt;" style="whiteSpace=wrap;html=1;rounded=1;align=center;labelBorderColor=none;spacingLeft=0;spacingBottom=0;spacingRight=0;spacing=10;spacingTop=0;labelBackgroundColor=none;fillColor=#2A2A2A;fontColor=#F0F0F0;" parent="1" vertex="1">
                    <mxGeometry x="200" y="-356" width="120" height="40" as="geometry"/>
                </mxCell>
                <mxCell id="133" style="edgeStyle=orthogonalEdgeStyle;shape=connector;rounded=1;html=1;exitX=0;exitY=0.5;exitDx=0;exitDy=0;entryX=1;entryY=0.5;entryDx=0;entryDy=0;labelBackgroundColor=default;fontFamily=Helvetica;fontSize=12;fontColor=#2A2A2A;startArrow=oval;startFill=1;endArrow=oval;endFill=1;strokeColor=#2A2A2A;strokeWidth=8;" parent="1" source="121" target="109" edge="1">
                    <mxGeometry relative="1" as="geometry"/>
                </mxCell>
                <mxCell id="121" value="&lt;div style=&quot;font-family: &amp;#34;consolas&amp;#34; , &amp;#34;courier new&amp;#34; , monospace ; line-height: 1.28&quot;&gt;Delaunay Triangulation&lt;/div&gt;" style="whiteSpace=wrap;html=1;rounded=1;align=left;labelBorderColor=none;spacingLeft=0;spacingBottom=0;spacingRight=0;spacing=10;spacingTop=0;fontColor=#0A304D;labelBackgroundColor=none;fillColor=#FFFFFF;strokeWidth=4;strokeColor=#2A2A2A;verticalAlign=top;" parent="1" vertex="1">
                    <mxGeometry x="-40" y="-380" width="200" height="40" as="geometry"/>
                </mxCell>
                <mxCell id="134" style="edgeStyle=orthogonalEdgeStyle;shape=connector;rounded=1;html=1;exitX=0;exitY=0.5;exitDx=0;exitDy=0;labelBackgroundColor=default;fontFamily=Helvetica;fontSize=12;fontColor=#2A2A2A;startArrow=oval;startFill=1;endArrow=oval;endFill=1;strokeColor=#2A2A2A;strokeWidth=8;entryX=1;entryY=0.5;entryDx=0;entryDy=0;" parent="1" source="122" edge="1" target="109">
                    <mxGeometry relative="1" as="geometry">
                        <mxPoint x="-80" y="-440" as="targetPoint"/>
                        <Array as="points">
                            <mxPoint x="-60" y="-310"/>
                            <mxPoint x="-60" y="-340"/>
                        </Array>
                    </mxGeometry>
                </mxCell>
                <mxCell id="122" value="&lt;div style=&quot;font-family: &amp;#34;consolas&amp;#34; , &amp;#34;courier new&amp;#34; , monospace ; line-height: 1.28&quot;&gt;Slope / Normal Calculation&lt;/div&gt;" style="whiteSpace=wrap;html=1;rounded=1;align=left;labelBorderColor=none;spacingLeft=0;spacingBottom=0;spacingRight=0;spacing=10;spacingTop=0;fontColor=#0A304D;labelBackgroundColor=none;fillColor=#FFFFFF;strokeWidth=4;strokeColor=#2A2A2A;verticalAlign=top;" parent="1" vertex="1">
                    <mxGeometry x="-40" y="-330" width="200" height="40" as="geometry"/>
                </mxCell>
                <mxCell id="123" value="&lt;div style=&quot;font-family: &amp;#34;consolas&amp;#34; , &amp;#34;courier new&amp;#34; , monospace ; line-height: 1.28&quot;&gt;Isovist / Viewshed Calculation&lt;/div&gt;" style="whiteSpace=wrap;html=1;rounded=1;align=left;labelBorderColor=none;spacingLeft=0;spacingBottom=0;spacingRight=0;spacing=10;spacingTop=0;fontColor=#0A304D;labelBackgroundColor=none;fillColor=#FFFFFF;strokeWidth=4;strokeColor=#2A2A2A;verticalAlign=top;" parent="1" vertex="1">
                    <mxGeometry x="-40" y="-280" width="200" height="60" as="geometry"/>
                </mxCell>
                <mxCell id="107" value="&lt;div style=&quot;font-family: &amp;#34;consolas&amp;#34; , &amp;#34;courier new&amp;#34; , monospace ; line-height: 1.28&quot;&gt;Linear Algebra&lt;/div&gt;" style="whiteSpace=wrap;html=1;rounded=1;align=left;labelBorderColor=none;spacingLeft=0;spacingBottom=0;spacingRight=0;spacing=10;spacingTop=0;fontColor=#0A304D;labelBackgroundColor=none;fillColor=#FFFFFF;strokeWidth=4;strokeColor=#2A2A2A;verticalAlign=top;" parent="1" vertex="1">
                    <mxGeometry x="-40" y="-480" width="200" height="40" as="geometry"/>
                </mxCell>
                <mxCell id="136" value="&lt;div style=&quot;font-family: &amp;quot;consolas&amp;quot; , &amp;quot;courier new&amp;quot; , monospace ; line-height: 1.28&quot;&gt;&lt;b&gt;Special Effects&lt;/b&gt;&lt;/div&gt;" style="whiteSpace=wrap;html=1;rounded=1;align=center;labelBorderColor=none;spacingLeft=0;spacingBottom=0;spacingRight=0;spacing=10;spacingTop=0;labelBackgroundColor=none;fillColor=#2A2A2A;fontColor=#F0F0F0;" parent="1" vertex="1">
                    <mxGeometry x="200" y="-306" width="120" height="40" as="geometry"/>
                </mxCell>
                <mxCell id="137" value="&lt;div style=&quot;font-family: &amp;quot;consolas&amp;quot; , &amp;quot;courier new&amp;quot; , monospace ; line-height: 1.28&quot;&gt;&lt;b&gt;Video Games&lt;/b&gt;&lt;/div&gt;" style="whiteSpace=wrap;html=1;rounded=1;align=center;labelBorderColor=none;spacingLeft=0;spacingBottom=0;spacingRight=0;spacing=10;spacingTop=0;labelBackgroundColor=none;fillColor=#2A2A2A;fontColor=#F0F0F0;" parent="1" vertex="1">
                    <mxGeometry x="200" y="-256" width="120" height="40" as="geometry"/>
                </mxCell>
                <mxCell id="138" value="&lt;div style=&quot;font-family: &amp;quot;consolas&amp;quot; , &amp;quot;courier new&amp;quot; , monospace ; line-height: 1.28&quot;&gt;&lt;b&gt;Graphic Design&lt;/b&gt;&lt;/div&gt;" style="whiteSpace=wrap;html=1;rounded=1;align=center;labelBorderColor=none;spacingLeft=0;spacingBottom=0;spacingRight=0;spacing=10;spacingTop=0;labelBackgroundColor=none;fillColor=#2A2A2A;fontColor=#F0F0F0;" parent="1" vertex="1">
                    <mxGeometry x="200" y="-206" width="120" height="40" as="geometry"/>
                </mxCell>
                <mxCell id="140" style="edgeStyle=orthogonalEdgeStyle;shape=connector;rounded=1;html=1;exitX=1;exitY=0.5;exitDx=0;exitDy=0;entryX=0;entryY=0.5;entryDx=0;entryDy=0;labelBackgroundColor=default;fontFamily=Helvetica;fontSize=12;fontColor=#2A2A2A;startArrow=oval;startFill=1;endArrow=oval;endFill=1;strokeColor=#2A2A2A;strokeWidth=8;" parent="1" source="139" target="109" edge="1">
                    <mxGeometry relative="1" as="geometry"/>
                </mxCell>
                <mxCell id="139" value="&lt;div style=&quot;font-family: &amp;#34;consolas&amp;#34; , &amp;#34;courier new&amp;#34; , monospace ; line-height: 1.28&quot;&gt;Trilateration&lt;/div&gt;" style="whiteSpace=wrap;html=1;rounded=1;align=left;labelBorderColor=none;spacingLeft=0;spacingBottom=0;spacingRight=0;spacing=10;spacingTop=0;fontColor=#0A304D;labelBackgroundColor=none;fillColor=#FFFFFF;strokeWidth=4;strokeColor=#2A2A2A;verticalAlign=top;" parent="1" vertex="1">
                    <mxGeometry x="-450" y="-430" width="170" height="40" as="geometry"/>
                </mxCell>
                <mxCell id="148" style="edgeStyle=orthogonalEdgeStyle;shape=connector;rounded=1;html=1;exitX=1;exitY=0.5;exitDx=0;exitDy=0;entryX=0;entryY=0.5;entryDx=0;entryDy=0;labelBackgroundColor=default;fontFamily=Helvetica;fontSize=12;fontColor=#2A2A2A;startArrow=oval;startFill=1;endArrow=oval;endFill=1;strokeColor=#2A2A2A;strokeWidth=8;" edge="1" parent="1" source="141" target="109">
                    <mxGeometry relative="1" as="geometry"/>
                </mxCell>
                <mxCell id="141" value="&lt;div style=&quot;font-family: &amp;#34;consolas&amp;#34; , &amp;#34;courier new&amp;#34; , monospace ; line-height: 1.28&quot;&gt;Spatial queries&lt;/div&gt;" style="whiteSpace=wrap;html=1;rounded=1;align=left;labelBorderColor=none;spacingLeft=0;spacingBottom=0;spacingRight=0;spacing=10;spacingTop=0;fontColor=#0A304D;labelBackgroundColor=none;fillColor=#FFFFFF;strokeWidth=4;strokeColor=#2A2A2A;verticalAlign=top;" parent="1" vertex="1">
                    <mxGeometry x="-450" y="-380" width="170" height="40" as="geometry"/>
                </mxCell>
                <mxCell id="147" style="edgeStyle=orthogonalEdgeStyle;shape=connector;rounded=1;html=1;exitX=1;exitY=0.5;exitDx=0;exitDy=0;labelBackgroundColor=default;fontFamily=Helvetica;fontSize=12;fontColor=#2A2A2A;startArrow=oval;startFill=1;endArrow=oval;endFill=1;strokeColor=#2A2A2A;strokeWidth=8;" edge="1" parent="1" source="142">
                    <mxGeometry relative="1" as="geometry">
                        <mxPoint x="-240" y="-340" as="targetPoint"/>
                        <Array as="points">
                            <mxPoint x="-260" y="-310"/>
                            <mxPoint x="-260" y="-340"/>
                        </Array>
                    </mxGeometry>
                </mxCell>
                <mxCell id="142" value="&lt;div style=&quot;font-family: &amp;#34;consolas&amp;#34; , &amp;#34;courier new&amp;#34; , monospace ; line-height: 1.28&quot;&gt;...&lt;/div&gt;" style="whiteSpace=wrap;html=1;rounded=1;align=left;labelBorderColor=none;spacingLeft=0;spacingBottom=0;spacingRight=0;spacing=10;spacingTop=0;fontColor=#0A304D;labelBackgroundColor=none;fillColor=#FFFFFF;strokeWidth=4;strokeColor=#2A2A2A;verticalAlign=top;" parent="1" vertex="1">
                    <mxGeometry x="-450" y="-330" width="170" height="40" as="geometry"/>
                </mxCell>
                <mxCell id="146" style="edgeStyle=orthogonalEdgeStyle;shape=connector;rounded=1;html=1;exitX=1;exitY=0.5;exitDx=0;exitDy=0;entryX=0;entryY=0.5;entryDx=0;entryDy=0;labelBackgroundColor=default;fontFamily=Helvetica;fontSize=12;fontColor=#2A2A2A;startArrow=oval;startFill=1;endArrow=oval;endFill=1;strokeColor=#2A2A2A;strokeWidth=8;" edge="1" parent="1" source="109" target="123">
                    <mxGeometry relative="1" as="geometry"/>
                </mxCell>
                <mxCell id="109" value="&lt;div style=&quot;font-family: &amp;quot;consolas&amp;quot; , &amp;quot;courier new&amp;quot; , monospace ; line-height: 1.28&quot;&gt;&lt;b&gt;Geocomputation&lt;/b&gt;&lt;/div&gt;" style="whiteSpace=wrap;html=1;rounded=1;align=center;labelBorderColor=none;spacingLeft=0;spacingBottom=0;spacingRight=0;spacing=10;spacingTop=0;fontColor=#ffffff;labelBackgroundColor=none;fillColor=#1ba1e2;strokeColor=#006EAF;" parent="1" vertex="1">
                    <mxGeometry x="-240" y="-380" width="160" height="80" as="geometry"/>
                </mxCell>
                <mxCell id="143" value="" style="endArrow=none;dashed=1;html=1;strokeColor=#0A0A0A;strokeWidth=4;dashPattern=1 1;" edge="1" parent="1" target="109">
                    <mxGeometry width="50" height="50" relative="1" as="geometry">
                        <mxPoint x="-160" y="-130" as="sourcePoint"/>
                        <mxPoint x="-160" y="-720.0000000000001" as="targetPoint"/>
                    </mxGeometry>
                </mxCell>
            </root>
        </mxGraphModel>
    </diagram>
</mxfile>